# xmcd
#
# Track frame offsets:
#   150
#   17767
#   36215
#   54617
#   73880
#   93895
#   111310
#   127302
#   143110
#   162120
#   180787
#   198320
#   216755
#   235110
#   254395
#   274227
#   291460
#   307280
#
# Disc length: 4304 seconds
#
# Revision: 0
# Processed by: cddbd v1.5PL3 Copyright (c) Steve Scherf et al.
# Submitted via: uFREEDB ActiveX Control 1.5
#
DISCID=1610ce12
DTITLE=Pedro Neves - Sonho de Amor
DYEAR=1900
DGENRE=gospel
TTITLE0=Agora sou feliz
TTITLE1=O amigo Lázaro
TTITLE2=Eu sou de Jesus
TTITLE3=Espírito Santo de Deus
TTITLE4=Sonho de amor
TTITLE5=Meu General
TTITLE6=Se Deus é por nós
TTITLE7=Maravilhoso
TTITLE8=Te Amo Jesus
TTITLE9=Sou Feliz com Cristo
TTITLE10=Agora sou Feliz - Play-Back
TTITLE11=A Amigo Lázaro - Play-Back
TTITLE12=Eu sou de Jesus - Play-Back
TTITLE13=Espírito Santo de Deus - Play-Back
TTITLE14=Sonho de Amor - Play-Back
TTITLE15=Meu General - Play-Back
TTITLE16=Se Deus é por nós - Play-Back
TTITLE17=Maravilhoso - Play-Back
EXTD=
EXTT0=
EXTT1=
EXTT2=
EXTT3=
EXTT4=
EXTT5=
EXTT6=
EXTT7=
EXTT8=
EXTT9=
EXTT10=
EXTT11=
EXTT12=
EXTT13=
EXTT14=
EXTT15=
EXTT16=
EXTT17=
PLAYORDER=
